<svg width="44" height="32" viewBox="0 0 44 32" fill="none" xmlns="http://www.w3.org/2000/svg">
<path d="M20.3028 22.1203C20.3878 21.5761 20.515 20.5321 20.515 19.3514C20.515 13.8725 17.972 8.30996 11.2769 8.30996C4.1152 8.30996 0.80957 14.5047 0.80957 20.1233C0.80957 27.0722 4.83565 31.4116 11.8696 31.4116C14.667 31.4116 17.251 30.961 19.3707 30.0111L18.5231 25.3584C16.785 25.9888 15.0052 26.3046 12.8022 26.3046C9.7938 26.3046 7.16698 24.9533 6.95479 22.0748L20.3028 22.1191V22.1203ZM6.91257 17.3544C7.08199 15.5457 8.18462 12.8771 10.9387 12.8771C13.8621 12.8771 14.5409 15.7261 14.5409 17.3544H6.91313H6.91257ZM36.4139 0.189581V10.8419H36.3289C35.3962 9.35094 33.4471 8.35613 30.8636 8.35613C25.9049 8.35613 21.5405 12.6961 21.5822 20.1104C21.5822 26.983 25.5238 31.459 30.4386 31.459C33.1088 31.459 35.6506 30.1921 36.9227 27.7506H37.0493L37.3043 30.9616H43.0246C42.9401 29.4694 42.8546 26.8925 42.8546 24.3605V0.188965H36.4133L36.4139 0.189581ZM36.4139 21.1508C36.4139 21.6925 36.3717 22.2361 36.2861 22.6867C35.9062 24.632 34.3803 25.9869 32.5156 25.9869C29.8465 25.9869 28.1084 23.6366 28.1084 19.9294C28.1084 16.4488 29.5927 13.6454 32.5583 13.6454C34.5497 13.6454 35.9478 15.137 36.3294 16.9899C36.4139 17.3981 36.4139 17.8505 36.4139 18.2568V21.1501V21.1508Z" fill="#1971C2"/>
</svg>
