<svg width="31" height="32" viewBox="0 0 31 32" fill="none" xmlns="http://www.w3.org/2000/svg">
<path d="M7.25772 31.9357V10.7406H0.81645V31.9357H7.25828H7.25772ZM4.03821 7.84723C6.28399 7.84723 7.68211 6.21958 7.68211 4.18564C7.6399 2.10553 6.28398 0.523438 4.08098 0.523438C1.87629 0.523438 0.436523 2.10553 0.436523 4.18564C0.436523 6.21958 1.83408 7.84723 3.99599 7.84723H4.03764H4.03821ZM10.8228 31.9357H17.2635V20.1007C17.2635 19.4679 17.3057 18.8338 17.4757 18.382C17.9412 17.1157 19.0011 15.8051 20.7808 15.8051C23.111 15.8051 24.0436 17.7485 24.0436 20.5982V31.9357H30.4843V19.7831C30.4843 13.2731 27.307 10.2438 23.0693 10.2438C19.5949 10.2438 18.069 12.3676 17.2213 13.8142H17.2641V10.7412H10.8234C10.9072 12.7296 10.8228 31.9363 10.8228 31.9363V31.9357Z" fill="white"/>
</svg>
