<svg width="75" height="32" viewBox="0 0 75 32" fill="none" xmlns="http://www.w3.org/2000/svg">
<path d="M0.951416 31.9617H18.7488V25.5705H7.39325V1.18966H0.951416V31.9617ZM27.7595 31.9617V10.7666H21.3182V31.9617H27.7595ZM24.5394 7.87323C26.7852 7.87323 28.1833 6.24559 28.1833 4.21041C28.1416 2.13092 26.7852 0.549438 24.5822 0.549438C22.3786 0.549438 20.9377 2.13153 20.9377 4.21041C20.9377 6.24559 22.3358 7.87323 24.4972 7.87323H24.5394ZM30.7499 31.9617H37.1912V20.1249C37.1912 19.4914 37.2328 18.858 37.4034 18.4068C37.8683 17.1411 38.9281 15.8299 40.7079 15.8299C43.0392 15.8299 43.9718 17.7739 43.9718 20.6217V31.961H50.412V19.8085C50.412 13.2979 47.2341 10.2685 42.9959 10.2685C39.5214 10.2685 37.9955 12.393 37.1478 13.8402H37.1912V10.7666H30.7499C30.8349 12.7556 30.7499 31.9617 30.7499 31.9617ZM59.4992 1.18966H53.0579V31.9617H59.4992V25.0897L61.109 22.8729L66.1521 31.9617H74.076L65.6017 18.8044L73.0167 9.85362H65.2628C65.2628 9.85362 59.9658 17.8613 59.4992 18.8118V1.18966Z" fill="#1971C2"/>
</svg>
