<svg width="211" height="45" viewBox="0 0 211 45" fill="none" xmlns="http://www.w3.org/2000/svg">
<path fill-rule="evenodd" clip-rule="evenodd" d="M107.674 0.0849609L99.2831 1.18611V44.1146H107.674V41.567C108.805 42.4436 109.904 43.4981 111.192 43.9981C116.081 45.8997 122.529 44.3503 124.784 37.2544C126.232 32.7022 126.195 28.0352 125.104 23.4318C123.896 18.3179 120.759 15.4948 115.901 14.9331C112.732 14.566 109.991 15.6069 107.674 18.6308V17.6911V1.36589V1.18611V0.0849609ZM194.193 0.111519L185.802 1.21471V44.1432H194.193V31.005L201.925 44.1616H210.824L202.435 29.8793L210.824 15.6441H201.925L194.193 28.7598V1.39449V1.21471V0.111519ZM16.2071 0.154425C12.3812 0.106174 7.06642 1.2358 5.55735 7.51108C5.55735 7.51317 5.55648 7.51715 5.55359 7.51924C5.54877 7.5412 5.54335 7.56265 5.53853 7.58461C5.15876 8.8398 5.18543 14.5883 5.19025 15.311H0V22.9987H5.51217V43.9082H13.5395V22.9987H19.6785L20.3694 15.3111H19.6804H13.6919V10.9902C14.1295 6.90458 20.3468 7.68064 20.3468 7.68064L20.3488 7.40076L20.3468 7.37011V0.659026V0.656934H20.3411C20.2609 0.63615 18.5026 0.183322 16.207 0.15437L16.2071 0.154425ZM31.0605 14.8167C26.5842 14.819 22.6578 17.903 21.2316 22.9537C20.1531 26.7737 20.1381 30.7039 20.7704 34.572C22.1362 42.9493 27.8777 45.7548 33.9974 44.372C35.875 43.9473 37.27 42.68 38.5645 40.9133C38.5645 40.9133 38.6816 40.7569 38.8243 40.4557V44.1432H46.6539V15.3437H38.8243V18.9904H38.8223C38.7241 18.8722 38.6276 18.7567 38.5438 18.6615C38.5303 18.6468 38.5196 18.6332 38.5061 18.6186C38.3895 18.4868 38.3084 18.4 38.3084 18.4C36.4183 16.3143 35.7038 15.7951 34.2233 15.3213C33.1557 14.98 32.0935 14.8161 31.0605 14.8167V14.8167ZM169.866 14.8269C168.402 14.8288 166.936 15.0418 165.482 15.4623C161.127 16.7216 158.209 19.7125 157.268 24.4696C156.754 27.0668 156.652 29.8251 156.788 32.4882C157.097 38.5779 160.568 42.9176 165.952 44.2637C166.029 44.2835 166.107 44.2982 166.184 44.3169H166.186C166.187 44.3172 166.199 44.3201 166.222 44.325C166.429 44.37 166.637 44.4121 166.845 44.4456C166.914 44.4529 166.984 44.4598 167.054 44.4639C167.056 44.466 167.058 44.466 167.06 44.466C167.323 44.5183 167.635 44.5583 167.963 44.5866C169.02 44.7079 170.364 44.7952 171.482 44.6519C171.488 44.6499 171.491 44.65 171.499 44.6479C171.557 44.6468 171.613 44.6469 171.668 44.6438C177.231 44.3289 181.451 40.522 182.683 34.6865C183.359 31.4847 183.359 28.266 182.708 25.0621C181.681 20.033 178.873 16.7981 174.255 15.4582C172.797 15.0346 171.331 14.8251 169.867 14.827L169.866 14.8269ZM141.249 14.8331C139.785 14.8351 138.321 15.048 136.867 15.4684C132.51 16.7268 129.59 19.7176 128.649 24.4758C128.136 27.0719 128.033 29.8323 128.169 32.4944C128.48 38.5841 131.949 42.9227 137.335 44.2699C137.41 44.2896 137.489 44.3044 137.565 44.323H137.567C137.568 44.3233 137.582 44.3262 137.605 44.3312C137.812 44.3762 138.02 44.4172 138.228 44.4517C138.297 44.458 138.368 44.4648 138.437 44.4722H138.443C138.704 44.5245 139.017 44.5624 139.346 44.5906C140.401 44.712 141.743 44.7993 142.863 44.656C142.871 44.656 142.874 44.655 142.88 44.6539C142.937 44.6529 142.996 44.6519 143.053 44.6478C148.615 44.334 152.834 40.5281 154.066 34.6904C154.742 31.4887 154.74 28.272 154.087 25.0681C153.064 20.039 150.254 16.8032 145.636 15.4622C144.178 15.0391 142.714 14.831 141.25 14.833L141.249 14.8331ZM62.1851 14.8903C61.5185 14.9152 60.8487 14.9687 60.1764 15.0456C54.5088 15.6951 50.6634 19.3261 49.5963 25.3175C49.0363 28.4701 49.0607 31.6613 49.7036 34.8233C50.6666 39.5585 53.3125 42.6178 57.6123 43.986C60.4182 44.8782 63.2928 44.9238 66.1536 44.4395C67.3565 44.2355 69.083 43.557 70.3216 43.0748L70.7922 42.895L70.5701 42.0799C70.2067 40.6375 69.7935 39.2132 69.3935 37.8387L69.0151 36.3106C69.0151 36.3106 59.2013 41.425 57.6707 31.7099C57.529 30.1064 57.5727 28.4507 57.7761 26.8681C58.1578 23.8818 59.8361 22.282 62.507 22.0079C63.4092 21.9148 64.3489 21.9622 65.2424 22.1264C66.4588 22.3492 67.6463 22.7463 68.9774 23.1029C69.4401 21.5664 69.9131 20.0468 70.3536 18.5165C70.423 18.277 70.4815 18.0704 70.5268 17.8852L70.747 16.9659C70.6921 16.8435 70.5592 16.7175 70.3799 16.5941C70.1544 16.3891 69.7699 16.2197 69.1694 15.9812C68.9294 15.886 68.6875 15.8013 68.4465 15.7197C68.2306 15.6455 68.0907 15.6012 68.0907 15.6012C66.157 15.0011 64.1849 14.8154 62.1851 14.8903ZM84.6818 14.9475C83.7212 14.9409 82.7579 15.0009 81.8128 15.0987C76.6397 15.6342 72.7115 19.1317 71.9067 24.3941C71.418 27.5864 71.3553 30.9738 71.7505 34.1798C72.3471 39.0029 74.511 42.076 78.2547 43.5508H78.2567C78.273 43.5519 78.2911 43.5549 78.3075 43.557L78.3055 43.5591C80.0145 44.1134 88.3767 46.4879 95.7494 42.4681L95.4539 41.2894C95.451 41.2914 95.4452 41.2914 95.4426 41.2914C95.1014 39.7204 94.692 38.1665 94.3055 36.609L94.2641 36.4578C94.2641 36.4578 94.1104 36.5169 93.8386 36.6111C93.8328 36.6121 93.8256 36.612 93.8198 36.6131C93.4979 36.7041 93.1796 36.8107 92.8635 36.9257C92.8047 36.9466 92.7472 36.9661 92.6884 36.985C91.5722 37.326 89.9756 37.7466 88.2907 37.9819C86.8767 38.1367 85.4498 38.1424 84.0079 38.0085C81.6666 37.588 79.8745 36.2268 79.9603 33.0094H81.297C85.8869 33.0094 90.477 33.0104 95.068 33.0094C95.1769 33.0094 95.2866 33.0094 95.3955 33.0073V33.0094C95.3955 33.0094 96.382 32.9974 96.4234 32.9869C96.4234 32.9869 96.4225 32.7048 96.4234 32.6703L96.4065 30.8132C96.3689 28.8196 96.3937 26.8151 96.1335 24.856C95.4173 19.4838 92.4045 16.085 87.5301 15.1969C86.6 15.028 85.6424 14.9542 84.6818 14.9477L84.6818 14.9475ZM84.3185 21.0845C85.2202 21.0584 86.1278 21.3102 87.003 21.8363C88.7727 22.8969 88.9103 24.8144 88.8593 26.8865H79.7947C79.8419 24.9294 80.0668 23.1095 81.6697 22.0018C82.5208 21.415 83.4168 21.1107 84.3185 21.0845ZM170.021 21.9834C172.308 22.0315 173.942 23.4402 174.524 25.8303C175.05 28.234 174.66 32.5122 174.607 33.0582C174.579 33.2486 174.55 33.4328 174.511 33.62C173.952 36.3061 172.156 37.7598 169.759 37.6406C167.182 37.5098 165.414 35.8745 165.165 33.0807C164.986 31.04 164.97 28.9559 165.126 26.913C165.375 23.6872 167.231 21.9238 170.021 21.9834H170.021ZM112.314 21.9855C114.841 21.8955 116.752 23.2564 117.128 26.0387C117.461 28.4905 117.478 31.0744 117.154 33.5241C116.785 36.3545 114.709 37.8365 112.245 37.6283C111.629 37.576 111.071 37.4403 110.571 37.2279C108.584 35.9905 107.984 33.9182 107.809 32.617C107.807 32.618 107.805 32.618 107.805 32.6191C107.669 30.6056 107.523 26.3959 108.428 24.4064C109.197 22.8814 110.536 22.0494 112.314 21.9855L112.314 21.9855ZM33.7752 21.9876C36.0847 22.0441 37.8637 23.5264 38.124 26.1225C38.3678 28.5513 38.3734 31.0514 38.1334 33.4812C37.8712 36.1443 35.887 37.7452 33.5399 37.6447C31.1351 37.5433 29.5432 36.1447 29.0236 33.6406C28.401 30.0779 29.1295 25.8445 29.1912 25.5015C29.8196 23.1103 31.4234 21.928 33.7752 21.9876H33.7752ZM141.402 21.9897C143.693 22.0378 145.325 23.4465 145.907 25.8366C146.435 28.2413 146.044 32.5154 145.992 33.0625C145.964 33.2518 145.933 33.4401 145.894 33.6263C145.337 36.3124 143.539 37.7661 141.142 37.6448C138.565 37.5172 136.797 35.8819 136.549 33.087C136.369 31.0452 136.355 28.9601 136.511 26.9173C136.756 23.6925 138.614 21.9301 141.402 21.9897H141.402Z" fill="#1971C2"/>
</svg>
