<svg width="155" height="56" viewBox="0 0 155 56" fill="none" xmlns="http://www.w3.org/2000/svg">
<path d="M20.3113 0.320457C9.42525 0.320457 0.270508 10.0183 0.270508 21.9245C0.270508 33.8308 9.42525 43.5286 20.3113 43.5286C26.1845 43.5286 30.6178 41.4208 34.0878 37.4688C37.6553 33.5669 38.7625 28.0907 38.7625 23.6619C38.7625 22.3446 38.6704 21.1278 38.4926 20.099H20.3046V26.002L33.204 25.9959C32.8082 29.2516 31.8047 31.6356 30.2791 33.3043C28.3978 35.3618 25.4609 37.6256 20.3046 37.6256C12.3551 37.6256 6.13824 30.619 6.13824 21.9245C6.13824 13.2301 12.3551 6.22349 20.3046 6.22349C24.5948 6.22349 27.7268 8.06698 30.0382 10.4382L33.847 6.27372C30.6236 2.90508 26.3336 0.320435 20.3113 0.320435V0.320457ZM123.665 1.9071V42.682H129.114V1.9071H123.665ZM143.459 15.7017C136.903 15.7017 131.46 21.341 131.46 29.6152C131.46 37.4189 136.857 43.5286 144.084 43.5286C149.911 43.5286 153.284 39.6267 154.683 37.3622L150.347 34.2011C148.902 36.5222 146.929 38.052 144.084 38.052C141.245 38.052 139.22 36.6288 137.918 33.8372L154.924 26.1331L154.345 24.5526C153.29 21.4475 150.06 15.7017 143.459 15.7017ZM53.6918 15.7079C46.66 15.7079 40.9302 21.5542 40.9302 29.6213C40.9302 37.632 46.66 43.5348 53.6918 43.5348C60.7235 43.5348 66.4534 37.632 66.4534 29.6213C66.4534 21.5542 60.7235 15.7079 53.6918 15.7079ZM81.2224 15.7079C74.1906 15.7079 68.4608 21.5604 68.4608 29.6213C68.4608 37.632 74.1906 43.5348 81.2224 43.5348C88.2542 43.5348 93.984 37.632 93.984 29.6213C93.984 21.5542 88.2542 15.7079 81.2224 15.7079ZM108.168 15.7079C101.808 15.7079 95.9802 21.8177 95.9802 29.6716C95.9802 37.469 101.808 43.5287 108.168 43.5287C111.208 43.5287 113.617 42.0551 114.867 40.3676H115.062V42.3684C115.062 47.6942 112.464 50.5234 108.271 50.5234C104.853 50.5234 102.731 47.8516 101.865 45.587L97.0007 47.801C98.4002 51.4895 102.111 56.0001 108.277 56.0001C114.827 56.0001 120.368 51.8032 120.368 41.5279V16.5545H115.062V18.8199H114.867C113.611 17.1826 111.202 15.7078 108.168 15.7078V15.7079ZM143.648 21.0841C145.862 21.0841 147.743 22.2943 148.369 24.0319L137.001 29.195C136.857 23.8252 140.809 21.0841 143.648 21.0841ZM53.6918 21.1907C57.5461 21.1907 60.8668 24.6154 60.8668 29.6213C60.8668 34.5708 57.5461 38.052 53.6918 38.052C49.8375 38.052 46.5167 34.577 46.5167 29.6213C46.5167 24.6154 49.8375 21.1907 53.6918 21.1907ZM81.2224 21.1907C85.0767 21.1907 88.3974 24.6154 88.3974 29.6213C88.3974 34.5708 85.0767 38.052 81.2224 38.052C77.3681 38.052 74.0473 34.577 74.0473 29.6213C74.0473 24.6154 77.3681 21.1907 81.2224 21.1907ZM108.667 21.1907C112.469 21.1907 115.458 24.7723 115.458 29.6715C115.458 34.5206 112.469 38.052 108.667 38.052C104.812 38.052 101.584 34.5206 101.584 29.6715C101.584 24.7723 104.812 21.1907 108.667 21.1907Z" fill="#1971C2"/>
</svg>
