<svg width="107" height="33" viewBox="0 0 107 33" fill="none" xmlns="http://www.w3.org/2000/svg">
<path d="M12.2874 1.3923H0.472168V31.8857H6.08908V22.4885H11.7094C18.4007 22.4885 22.7392 18.331 22.7392 11.9162C22.7392 5.50147 18.6455 1.3923 12.2874 1.3923ZM11.9134 17.2489H6.08908V6.63195H11.7876C15.2556 6.63195 17.3637 8.62146 17.3637 11.9162C17.3637 15.211 15.174 17.2489 11.9236 17.2489H11.9134ZM27.8257 31.8857H47.6923V26.3299H33.4766V1.3923H27.8155L27.8257 31.8857ZM52.5272 31.8857H73.6755V26.3299H58.1339V19.2347H71.3533V13.8165H58.1339V6.8588H73.4579V1.3923H52.517L52.5272 31.8857ZM92.3793 32.4584C100.641 32.4584 106.836 25.6829 106.836 16.6464C106.836 7.60997 100.805 0.849365 92.3793 0.849365C84.1171 0.849365 77.9222 7.62485 77.9222 16.6613C77.9222 25.6978 83.9505 32.4584 92.3793 32.4584ZM92.3793 26.9026C87.3812 26.9026 83.5391 22.4736 83.5391 16.6018C83.5391 10.73 87.3812 6.30099 92.3793 6.30099C97.3774 6.30099 101.219 10.73 101.219 16.6018C101.219 22.4736 97.4182 26.9026 92.3793 26.9026Z" fill="#1971C2"/>
</svg>
